<svg viewBox="0 0 72 72" xmlns="http://www.w3.org/2000/svg"><circle cx="36" cy="35" fill="#fcea2b" r="20.8"/><path d="m23.437 50.3563c-1.3321 3.5222-5.0049 8.3556-8.437 10.6437 7.1652 0 12.2335-2.0922 16-7.2731" fill="#fcea2b"/><circle cx="26.0001" cy="35.0788" r="2.8571"/><circle cx="36.0001" cy="35.0788" r="2.8571"/><circle cx="46.0001" cy="35.0788" r="2.8571"/><g fill="none" stroke="#000" stroke-linecap="round" stroke-miterlimit="10" stroke-width="2"><path d="m23.437 50.3563c-1.3321 3.5222-5.0049 8.3556-8.437 10.6437 7.1652 0 12.2335-2.0922 16-7.2731" stroke-linejoin="round"/><path d="m23.437 50.3563c-1.3321 3.5222-5.0049 8.3556-8.437 10.6437 7.1652 0 12.2335-2.0922 16-7.2731" stroke-linejoin="round"/><path d="m20.4809 47.6168c-2.8014-3.4417-4.4809-7.8331-4.4809-12.6168 0-11.0457 8.9543-20 20-20s20 8.9543 20 20-8.9543 20-20 20c-.3703 0-.7383-.0101-1.1037-.0299"/></g></svg>