<svg height="48pt" viewBox="0 0 48 48" width="48pt" xmlns="http://www.w3.org/2000/svg" xmlns:xlink="http://www.w3.org/1999/xlink"><linearGradient id="a" gradientTransform="matrix(47 0 0 44.762 .5 1.619)" gradientUnits="userSpaceOnUse" x1="-.000038" x2=".999962" y1=".5" y2=".5"><stop offset="0" stop-color="#d300dc"/><stop offset="1" stop-color="#8700ff"/></linearGradient><path d="m20.643 36.297v1.766c-2.294.544-4.159 1.701-5.852 3.338-1.117 1.081-1.182 3.082 0 4.144.654.582 1.489.871 2.306.833.692-.032 1.379-.302 1.928-.833.216-.211.438-.409.667-.595.098-.064.196-.135.294-.199.392-.255.795-.472 1.22-.671.575-.211 1.171-.369 1.772-.472.353-.032.669-.045 1.022-.039.353-.006.669.007 1.022.039.601.103 1.197.261 1.772.472.425.199.828.416 1.22.671.098.064.196.135.294.199.229.186.451.384.667.595.549.531 1.236.801 1.928.833.817.038 1.652-.251 2.306-.833 1.182-1.062 1.117-3.063 0-4.144-1.693-1.637-3.558-2.794-5.852-3.338v-1.766h7.305c.404 0 .815.013 1.225.013h.291c.259 0 .512-.007.771-.02 2.325-.114 4.562-.952 6.362-2.361.373-.286.727-.603 1.062-.946.669-.68 1.257-1.454 1.724-2.311.86-1.556 1.327-2.841 1.384-4.619.006-.101.006-.203.006-.298.013-1.435-1.194-2.813-2.659-2.921-.083 0-.171-.006-.253 0h-.032c-.031 0-.069.007-.101.007-.726.057-1.39.368-1.883.844-.372.362-.65 1.056-.783 1.583-.057.223-.089.457-.089.699 0 .235-.012.463-.031.698-.082.451-.202.441-.36.873-.158.33-.335.653-.537.958-.045.07-.089.134-.133.197-.145.171-.291.337-.449.495-.158.153-.322.299-.486.445-.07.05-.133.095-.202.139-.31.204-.632.381-.961.54-.423.152-.859.273-1.307.356-.379.031-.759.044-1.144.044h-.303c-.499 0-.992-.013-1.479-.013h-20.078c-.613 0-1.232.026-1.858.026h-.253-.038c-.442 0-.884-.013-1.32-.051-.449-.083-.885-.203-1.314-.356-.329-.158-.651-.336-.961-.539-.063-.045-.126-.089-.189-.134-.164-.146-.335-.292-.493-.45-.158-.159-.303-.324-.448-.489-.045-.064-.089-.127-.133-.197-.202-.305-.373-.622-.531-.946-.158-.438-.278-.883-.366-1.34v-.006c-.051-.508-.07-1.022-.076-1.543v-.006c-.013-1.073.044-2.371.044-3.424v-7.333-.757-.032c-.006-.248-.006-.495 0-.743v-.038c.006-.216.013-.438.032-.654.088-.451.208-.889.366-1.32.158-.331.335-.642.531-.946.044-.064.088-.127.133-.191.151-.165.296-.336.454-.495.158-.165.323-.311.493-.457.063-.045.127-.089.19-.134.303-.203.619-.381.947-.539.43-.159.872-.28 1.321-.362.404-.032.815-.045 1.226-.045h.221.006c.493 0 .992.013 1.478.013h20.092c.613 0 1.232-.025 1.851-.025h.291c.442.006.884.019 1.326.057.449.082.898.203 1.327.362.322.158.645.336.948.539.07.045.133.089.196.134.164.146.335.292.493.451.158.152.303.317.448.488.045.07.089.134.133.197.202.305.373.622.531.952.164.432.278.877.366 1.327.019.21.025-.022.032.194v.05c.006.769.341 1.741.872 2.287.461.477 1.08.8 1.756.845.044.006.082.006.126.006h.139.026c1.478-.082 2.761-1.181 2.862-2.692.006-.07.006-.146.006-.216-.032-3.828-2.028-6.954-5.276-8.961-1.87-1.149-3.999-1.587-6.16-1.587h-21.506-2.957c-2.881 0-5.611 1.06-7.715 3.041-2.223 2.102-3.386 5.098-3.386 8.139v.502 4.584 5.6.87c.006 1.466.051 2.92.531 4.329.53 1.581 1.409 3.029 2.546 4.229.341.362.714.705 1.099 1.016 1.201.971 2.61 1.688 4.151 2.05 1.295.305 2.565.318 3.873.318zm-6.927-19.663h4v10.929h-4zm16.568 4h4v6.929h-4zm-8.284-9.633h4v16.562h-4z" fill="url(#a)" fill-rule="evenodd"/></svg>